<svg xmlns="http://www.w3.org/2000/svg" viewBox="0 0 100 100" width="100" height="100">
  <defs>
    <linearGradient id="mbGradient" x1="0%" y1="50%" x2="100%" y2="50%">
      <stop offset="0%" style="stop-color:#FFD700;stop-opacity:1" />
      <stop offset="30%" style="stop-color:#FFC700;stop-opacity:1" />
      <stop offset="60%" style="stop-color:#FFB700;stop-opacity:1" />
      <stop offset="80%" style="stop-color:#87CEEB;stop-opacity:1" />
      <stop offset="100%" style="stop-color:#89CFF0;stop-opacity:1" />
    </linearGradient>
  </defs>
  
  <!-- Continuous cursive MB with elegant flow -->
  <path d="M 10 15
        C 10 15, 15 10, 20 20
        C 20 20, 18 40, 10 90
        C 10 90, 18 40, 22 20
        C 22 20, 35 00, 39 20
        C 39 20, 37 40, 30 84
        C 30 84, 37 40, 39 20
        C 39 20, 50 00, 55 20
        C 55 20, 55 40, 50 80
        C 54 90, 62 99, 80 80
        C 80 80, 90 65, 65 50
        C 65 50, 90 35, 68 20
        C 62 20, 75 20, 78 10"
        fill="none" 
        stroke="url(#mbGradient)" 
        stroke-width="6" 
        stroke-linecap="round" 
        stroke-linejoin="round"/>
</svg>
